<mxfile host="Electron" agent="Mozilla/5.0 (Windows NT 10.0; Win64; x64) AppleWebKit/537.36 (KHTML, like Gecko) draw.io/24.7.17 Chrome/128.0.6613.36 Electron/32.0.1 Safari/537.36" version="24.7.17">
  <diagram name="Page-1" id="Fcwa38Csi44Nm6M70TVx">
    <mxGraphModel dx="1863" dy="606" grid="1" gridSize="10" guides="1" tooltips="1" connect="1" arrows="1" fold="1" page="1" pageScale="1" pageWidth="827" pageHeight="1169" math="0" shadow="0">
      <root>
        <mxCell id="0" />
        <mxCell id="1" parent="0" />
        <mxCell id="3eJuTrO9eN3R_g7ri0z4-1" value="systeme informatise" style="swimlane;whiteSpace=wrap;html=1;rotation=-90;" vertex="1" parent="1">
          <mxGeometry x="322.5" y="270.5" width="180" height="810" as="geometry" />
        </mxCell>
        <mxCell id="3eJuTrO9eN3R_g7ri0z4-12" value="liste des fournisseurs" style="shape=process;whiteSpace=wrap;html=1;backgroundOutline=1;" vertex="1" parent="3eJuTrO9eN3R_g7ri0z4-1">
          <mxGeometry x="67.5" y="359.5" width="120" height="60" as="geometry" />
        </mxCell>
        <mxCell id="3eJuTrO9eN3R_g7ri0z4-13" value="base de donnee" style="shape=dataStorage;whiteSpace=wrap;html=1;fixedSize=1;" vertex="1" parent="3eJuTrO9eN3R_g7ri0z4-1">
          <mxGeometry x="297.5" y="369.5" width="125" height="40" as="geometry" />
        </mxCell>
        <mxCell id="3eJuTrO9eN3R_g7ri0z4-17" value="Maj des contrats de promesse" style="shape=process;whiteSpace=wrap;html=1;backgroundOutline=1;" vertex="1" parent="3eJuTrO9eN3R_g7ri0z4-1">
          <mxGeometry x="-152.5" y="359.5" width="120" height="60" as="geometry" />
        </mxCell>
        <mxCell id="3eJuTrO9eN3R_g7ri0z4-26" value="" style="shape=waypoint;sketch=0;size=6;pointerEvents=1;points=[];fillColor=default;resizable=0;rotatable=0;perimeter=centerPerimeter;snapToPoint=1;strokeWidth=2;rounded=1;arcSize=11;" vertex="1" parent="3eJuTrO9eN3R_g7ri0z4-1">
          <mxGeometry x="131.5" y="409.5" width="20" height="20" as="geometry" />
        </mxCell>
        <mxCell id="3eJuTrO9eN3R_g7ri0z4-2" value="M.langois" style="swimlane;whiteSpace=wrap;html=1;rotation=-90;" vertex="1" parent="1">
          <mxGeometry x="315" y="66" width="200" height="810" as="geometry" />
        </mxCell>
        <mxCell id="3eJuTrO9eN3R_g7ri0z4-18" value="liste des fournisseurs" style="html=1;strokeWidth=2;shape=manualInput;whiteSpace=wrap;rounded=1;size=26;arcSize=11;" vertex="1" parent="3eJuTrO9eN3R_g7ri0z4-2">
          <mxGeometry x="-85" y="384" width="100" height="60" as="geometry" />
        </mxCell>
        <mxCell id="3eJuTrO9eN3R_g7ri0z4-3" value="M.salman" style="swimlane;whiteSpace=wrap;html=1;rotation=-90;" vertex="1" parent="1">
          <mxGeometry x="314" y="721" width="200" height="810" as="geometry" />
        </mxCell>
        <mxCell id="3eJuTrO9eN3R_g7ri0z4-4" value="M.roy" style="swimlane;whiteSpace=wrap;html=1;rotation=-90;" vertex="1" parent="1">
          <mxGeometry x="300" y="510" width="216.5" height="810" as="geometry" />
        </mxCell>
        <mxCell id="3eJuTrO9eN3R_g7ri0z4-19" value="reception des contrat signes" style="html=1;strokeWidth=2;shape=manualInput;whiteSpace=wrap;rounded=1;size=26;arcSize=11;" vertex="1" parent="3eJuTrO9eN3R_g7ri0z4-4">
          <mxGeometry x="-250" y="337" width="100" height="60" as="geometry" />
        </mxCell>
        <mxCell id="3eJuTrO9eN3R_g7ri0z4-20" value="" style="shape=waypoint;sketch=0;size=6;pointerEvents=1;points=[];fillColor=default;resizable=0;rotatable=0;perimeter=centerPerimeter;snapToPoint=1;" vertex="1" parent="3eJuTrO9eN3R_g7ri0z4-4">
          <mxGeometry x="-306" y="209" width="20" height="20" as="geometry" />
        </mxCell>
        <mxCell id="3eJuTrO9eN3R_g7ri0z4-24" value="oui" style="edgeStyle=orthogonalEdgeStyle;rounded=0;orthogonalLoop=1;jettySize=auto;html=1;exitX=0.866;exitY=0.71;exitDx=0;exitDy=0;exitPerimeter=0;" edge="1" parent="3eJuTrO9eN3R_g7ri0z4-4" source="3eJuTrO9eN3R_g7ri0z4-22" target="3eJuTrO9eN3R_g7ri0z4-23">
          <mxGeometry relative="1" as="geometry">
            <Array as="points">
              <mxPoint x="-33" y="320" />
              <mxPoint x="-39" y="320" />
              <mxPoint x="-39" y="340" />
              <mxPoint x="47" y="340" />
              <mxPoint x="47" y="347" />
            </Array>
          </mxGeometry>
        </mxCell>
        <mxCell id="3eJuTrO9eN3R_g7ri0z4-29" value="" style="edgeStyle=orthogonalEdgeStyle;rounded=0;orthogonalLoop=1;jettySize=auto;html=1;exitX=0.5;exitY=1;exitDx=0;exitDy=0;exitPerimeter=0;" edge="1" parent="3eJuTrO9eN3R_g7ri0z4-4">
          <mxGeometry relative="1" as="geometry">
            <mxPoint x="-56" y="400" as="sourcePoint" />
            <mxPoint x="314" y="390" as="targetPoint" />
            <Array as="points">
              <mxPoint x="-56" y="420" />
              <mxPoint x="106" y="420" />
              <mxPoint x="106" y="390" />
              <mxPoint x="228" y="390" />
            </Array>
          </mxGeometry>
        </mxCell>
        <mxCell id="3eJuTrO9eN3R_g7ri0z4-30" value="non" style="edgeLabel;html=1;align=center;verticalAlign=middle;resizable=0;points=[];" vertex="1" connectable="0" parent="3eJuTrO9eN3R_g7ri0z4-29">
          <mxGeometry relative="1" as="geometry">
            <mxPoint as="offset" />
          </mxGeometry>
        </mxCell>
        <mxCell id="3eJuTrO9eN3R_g7ri0z4-22" value="verification" style="strokeWidth=2;html=1;shape=mxgraph.flowchart.decision;whiteSpace=wrap;" vertex="1" parent="3eJuTrO9eN3R_g7ri0z4-4">
          <mxGeometry x="-120" y="337" width="100" height="73" as="geometry" />
        </mxCell>
        <mxCell id="3eJuTrO9eN3R_g7ri0z4-23" value="" style="shape=waypoint;sketch=0;size=6;pointerEvents=1;points=[];fillColor=default;resizable=0;rotatable=0;perimeter=centerPerimeter;snapToPoint=1;strokeWidth=2;" vertex="1" parent="3eJuTrO9eN3R_g7ri0z4-4">
          <mxGeometry x="80" y="337" width="20" height="20" as="geometry" />
        </mxCell>
        <mxCell id="3eJuTrO9eN3R_g7ri0z4-25" value="ajout sur la liste des contrat" style="html=1;strokeWidth=2;shape=manualInput;whiteSpace=wrap;rounded=1;size=26;arcSize=11;" vertex="1" parent="3eJuTrO9eN3R_g7ri0z4-4">
          <mxGeometry x="90" y="297" width="100" height="60" as="geometry" />
        </mxCell>
        <mxCell id="3eJuTrO9eN3R_g7ri0z4-28" value="" style="shape=waypoint;sketch=0;size=6;pointerEvents=1;points=[];fillColor=default;resizable=0;rotatable=0;perimeter=centerPerimeter;snapToPoint=1;strokeWidth=2;" vertex="1" parent="3eJuTrO9eN3R_g7ri0z4-4">
          <mxGeometry x="235" y="317" width="20" height="20" as="geometry" />
        </mxCell>
        <mxCell id="3eJuTrO9eN3R_g7ri0z4-31" style="edgeStyle=orthogonalEdgeStyle;rounded=0;orthogonalLoop=1;jettySize=auto;html=1;exitX=0.5;exitY=1;exitDx=0;exitDy=0;entryX=0.422;entryY=1.023;entryDx=0;entryDy=0;entryPerimeter=0;" edge="1" parent="3eJuTrO9eN3R_g7ri0z4-4" source="3eJuTrO9eN3R_g7ri0z4-19" target="3eJuTrO9eN3R_g7ri0z4-19">
          <mxGeometry relative="1" as="geometry" />
        </mxCell>
        <mxCell id="3eJuTrO9eN3R_g7ri0z4-32" value="creation d un nouveau dossier pour le fournisseur" style="html=1;strokeWidth=2;shape=manualInput;whiteSpace=wrap;rounded=1;size=26;arcSize=11;" vertex="1" parent="3eJuTrO9eN3R_g7ri0z4-4">
          <mxGeometry x="320" y="317" width="100" height="93" as="geometry" />
        </mxCell>
        <mxCell id="3eJuTrO9eN3R_g7ri0z4-21" value="contrat signe" style="edgeStyle=orthogonalEdgeStyle;rounded=0;orthogonalLoop=1;jettySize=auto;html=1;" edge="1" parent="1" source="3eJuTrO9eN3R_g7ri0z4-17" target="3eJuTrO9eN3R_g7ri0z4-20">
          <mxGeometry relative="1" as="geometry" />
        </mxCell>
        <mxCell id="3eJuTrO9eN3R_g7ri0z4-27" value="" style="edgeStyle=orthogonalEdgeStyle;rounded=0;orthogonalLoop=1;jettySize=auto;html=1;exitX=0.156;exitY=0.423;exitDx=0;exitDy=0;exitPerimeter=0;" edge="1" parent="1" source="3eJuTrO9eN3R_g7ri0z4-25" target="3eJuTrO9eN3R_g7ri0z4-26">
          <mxGeometry relative="1" as="geometry">
            <mxPoint x="520" y="850" as="sourcePoint" />
          </mxGeometry>
        </mxCell>
      </root>
    </mxGraphModel>
  </diagram>
</mxfile>
